#tb 0: 1/44100
#media_type 0: audio
#codec_id 0: pcm_s16le
#sample_rate 0: 44100
#channel_layout_name 0: 2 channels
0,          0,          0,     4096,    16384, 0x134aaebf
0,       4096,       4096,     4096,    16384, 0xd4d1ecb9
0,       8192,       8192,     4096,    16384, 0x86b2b176
0,      12288,      12288,     4096,    16384, 0x14bbc8cc
0,      16384,      16384,     4096,    16384, 0xe426c244
0,      20480,      20480,     4096,    16384, 0x3500ff09
0,      24576,      24576,     4096,    16384, 0x1c29d069
0,      28672,      28672,     4096,    16384, 0xe15ad51f
0,      32768,      32768,     4096,    16384, 0x4449b3ac
0,      36864,      36864,     4096,    16384, 0xcd2ae8d5
0,      40960,      40960,     4096,    16384, 0x12e7ec45
0,      45056,      45056,     4096,    16384, 0x43f5bb20
0,      49152,      49152,     4096,    16384, 0x7be7f025
0,      53248,      53248,     4096,    16384, 0x3e21e07f
0,      57344,      57344,     4096,    16384, 0x7882ca64
0,      61440,      61440,     4096,    16384, 0xba69f815
0,      65536,      65536,     4096,    16384, 0x9673c2b7
0,      69632,      69632,     4096,    16384, 0xacfed858
0,      73728,      73728,     4096,    16384, 0x12e7ec45
0,      77824,      77824,     4096,    16384, 0x43f5bb20
